<svg width="24.000000" height="24.000000" viewBox="0 0 24 24" fill="none" xmlns="http://www.w3.org/2000/svg" xmlns:xlink="http://www.w3.org/1999/xlink">
	<defs>
		<clipPath id="clip8_776">
			<rect id="Icon/list-ui-alt" width="24.000000" height="24.000000" fill="white" fill-opacity="0"/>
		</clipPath>
	</defs>
	<rect id="Icon/list-ui-alt" width="24.000000" height="24.000000" fill="#FFFFFF" fill-opacity="0"/>
	<g clip-path="url(#clip8_776)">
		<path id="Vector" d="M3.5 6C3.30176 6 3.1084 6.05859 2.94434 6.16846C2.78027 6.27832 2.65137 6.43457 2.57617 6.61743C2.5 6.80005 2.48047 7.00122 2.51953 7.19507C2.55762 7.38916 2.65332 7.56714 2.79297 7.70703C2.93262 7.84692 3.11133 7.94214 3.30469 7.98071C3.49902 8.01929 3.7002 7.99951 3.88281 7.92383C4.06543 7.84814 4.22168 7.71997 4.33105 7.55566C4.44141 7.39111 4.5 7.19775 4.5 7C4.5 6.73486 4.39453 6.48047 4.20703 6.29297C4.01953 6.10547 3.76562 6 3.5 6ZM7.5 8L21.5 8C21.7656 8 22.0195 7.89453 22.207 7.70703C22.3945 7.51953 22.5 7.26514 22.5 7C22.5 6.73486 22.3945 6.48047 22.207 6.29297C22.0195 6.10547 21.7656 6 21.5 6L7.5 6C7.23438 6 6.98047 6.10547 6.79297 6.29297C6.60547 6.48047 6.5 6.73486 6.5 7C6.5 7.26514 6.60547 7.51953 6.79297 7.70703C6.98047 7.89453 7.23438 8 7.5 8ZM7.5 11C7.30176 11 7.1084 11.0586 6.94434 11.1685C6.78027 11.2783 6.65137 11.4346 6.57617 11.6174C6.5 11.8 6.48047 12.0012 6.51953 12.1951C6.55762 12.3892 6.65332 12.5671 6.79297 12.707C6.93262 12.8469 7.11133 12.9421 7.30469 12.9807C7.49902 13.0193 7.7002 12.9995 7.88281 12.9238C8.06543 12.8481 8.22168 12.72 8.33105 12.5557C8.44141 12.3911 8.5 12.1978 8.5 12C8.5 11.7349 8.39453 11.4805 8.20703 11.293C8.01953 11.1055 7.76562 11 7.5 11ZM11.5 16C11.3018 16 11.1084 16.0586 10.9443 16.1685C10.7803 16.2783 10.6514 16.4346 10.5762 16.6174C10.5 16.8 10.4805 17.0012 10.5195 17.1951C10.5576 17.3892 10.6533 17.5671 10.793 17.707C10.9326 17.8469 11.1113 17.9421 11.3047 17.9807C11.499 18.0193 11.7002 17.9995 11.8828 17.9238C12.0654 17.8481 12.2217 17.72 12.3311 17.5557C12.4414 17.3911 12.5 17.1978 12.5 17C12.5 16.7349 12.3945 16.4805 12.207 16.293C12.0195 16.1055 11.7656 16 11.5 16ZM21.5 11L11.5 11C11.2344 11 10.9805 11.1055 10.793 11.293C10.6055 11.4805 10.5 11.7349 10.5 12C10.5 12.2651 10.6055 12.5195 10.793 12.707C10.9805 12.8945 11.2344 13 11.5 13L21.5 13C21.7656 13 22.0195 12.8945 22.207 12.707C22.3945 12.5195 22.5 12.2651 22.5 12C22.5 11.7349 22.3945 11.4805 22.207 11.293C22.0195 11.1055 21.7656 11 21.5 11ZM21.5 16L15.5 16C15.2344 16 14.9805 16.1055 14.793 16.293C14.6055 16.4805 14.5 16.7349 14.5 17C14.5 17.2651 14.6055 17.5195 14.793 17.707C14.9805 17.8945 15.2344 18 15.5 18L21.5 18C21.7656 18 22.0195 17.8945 22.207 17.707C22.3945 17.5195 22.5 17.2651 22.5 17C22.5 16.7349 22.3945 16.4805 22.207 16.293C22.0195 16.1055 21.7656 16 21.5 16Z" fill="#C3C3C6" fill-opacity="1.000000" fill-rule="nonzero"/>
	</g>
</svg>
