<svg width="16.000000" height="16.000000" viewBox="0 0 16 16" fill="none" xmlns="http://www.w3.org/2000/svg" xmlns:xlink="http://www.w3.org/1999/xlink">
	<desc>
			Created with Pixso.
	</desc>
	<defs>
		<clipPath id="clip16_716">
			<rect id="Icon/16px/cancel_16" width="16.000000" height="16.000000" fill="white" fill-opacity="0"/>
		</clipPath>
	</defs>
	<g clip-path="url(#clip16_716)">
		<path id="↳ Icon Color" d="M12.7363 3.26367C13.0879 3.61499 13.0879 4.18481 12.7363 4.53638L9.27344 8L12.7363 11.4636C13.0586 11.7859 13.085 12.2915 12.8174 12.6443L12.7363 12.7363C12.3848 13.0879 11.8154 13.0879 11.4639 12.7363L8 9.27295L4.53613 12.7363C4.18457 13.0879 3.61523 13.0879 3.26367 12.7363C2.91211 12.385 2.91211 11.8152 3.26367 11.4636L6.72656 8L3.26367 4.53638C2.94141 4.21411 2.91504 3.7085 3.18262 3.35571L3.26367 3.26367C3.61523 2.91211 4.18457 2.91211 4.53613 3.26367L8 6.72705L11.4639 3.26367C11.8154 2.91211 12.3848 2.91211 12.7363 3.26367Z" fill="#C3C3C6" fill-opacity="1.000000" fill-rule="nonzero"/>
	</g>
</svg>
