<svg width="24.000000" height="24.000000" viewBox="0 0 24 24" fill="none" xmlns="http://www.w3.org/2000/svg" xmlns:xlink="http://www.w3.org/1999/xlink">
	<defs>
		<clipPath id="clip8_783">
			<rect id="Icon/search" width="24.000000" height="24.000000" fill="white" fill-opacity="0"/>
		</clipPath>
	</defs>
	<rect id="Icon/search" width="24.000000" height="24.000000" fill="#FFFFFF" fill-opacity="0"/>
	<g clip-path="url(#clip8_783)">
		<path id="Vector" d="M21.71 20.29L18 16.61C19.4404 14.8145 20.1377 12.5353 19.9492 10.2413C19.7607 7.94733 18.7002 5.81281 16.9863 4.27667C15.2715 2.74054 13.0342 1.91956 10.7334 1.98248C8.43262 2.04547 6.24316 2.98761 4.61523 4.61517C2.98828 6.24274 2.0459 8.43207 1.98242 10.733C1.91992 13.0338 2.74121 15.2714 4.27734 16.9855C5.81348 18.6997 7.94727 19.7601 10.2412 19.9489C12.5361 20.1375 14.8145 19.4401 16.6104 18L20.29 21.6801C20.3838 21.7737 20.4941 21.8481 20.6162 21.8989C20.7373 21.9497 20.8682 21.9758 21 21.9758C21.1328 21.9758 21.2627 21.9497 21.3848 21.8989C21.5068 21.8481 21.6172 21.7737 21.71 21.6801C21.8906 21.4935 21.9912 21.2444 21.9912 20.985C21.9912 20.7257 21.8906 20.4765 21.71 20.29ZM11 18C9.61621 18 8.2627 17.5895 7.11133 16.8203C5.95996 16.0511 5.06348 14.9579 4.5332 13.6788C4.00391 12.3997 3.86523 10.9922 4.13477 9.6344C4.40527 8.27655 5.07129 7.02924 6.05078 6.05029C7.0293 5.07129 8.27734 4.4046 9.63477 4.13452C10.9922 3.86444 12.4004 4.00305 13.6787 4.5329C14.958 5.06268 16.0518 5.9599 16.8203 7.11102C17.5898 8.26221 18 9.61554 18 11C18 12.8566 17.2627 14.637 15.9502 15.9498C14.6377 17.2625 12.8564 18 11 18Z" fill="#050510" fill-opacity="1.000000" fill-rule="nonzero"/>
	</g>
</svg>
